 <svg width="99" height="98" viewBox="0 0 99 98" fill="none" xmlns="http://www.w3.org/2000/svg">
<circle cx="49.5" cy="49" r="49" fill="#86ECA0"/>
<circle cx="49.5" cy="49" r="43" fill="#AEF2BF"/>
<circle cx="49.5" cy="49" r="35" fill="#CFF7D9"/>
<path d="M69.5 49C69.5 60.0457 60.5457 69 49.5 69C38.4543 69 29.5 60.0457 29.5 49C29.5 37.9543 38.4543 29 49.5 29C60.5457 29 69.5 37.9543 69.5 49ZM47.1866 59.5898L62.0253 44.7511C62.5292 44.2473 62.5292 43.4302 62.0253 42.9264L60.2006 41.1016C59.6967 40.5977 58.8797 40.5977 58.3757 41.1016L46.2742 53.2031L40.6243 47.5531C40.1204 47.0493 39.3034 47.0493 38.7994 47.5531L36.9747 49.3779C36.4708 49.8818 36.4708 50.6988 36.9747 51.2027L45.3618 59.5898C45.8657 60.0937 46.6827 60.0937 47.1866 59.5898Z" fill="#0DC00A"/>
</svg>
