<svg width="98" height="98" viewBox="0 0 98 98" fill="none" xmlns="http://www.w3.org/2000/svg">
<circle cx="49" cy="49" r="49" fill="#12F964" fill-opacity="0.79"/>
<circle cx="49" cy="49" r="43" fill="#23C65D" fill-opacity="0.96"/>
<circle cx="49" cy="49" r="35" fill="#23C55D" fill-opacity="0.64"/>
<path d="M69 42.7501C69 50.344 62.8439 56.5 55.25 56.5C54.3734 56.5 53.5164 56.417 52.6854 56.2602L50.8095 58.3707C50.6335 58.5686 50.4177 58.727 50.1762 58.8355C49.9346 58.9439 49.6728 59 49.408 59H46.5V62.125C46.5 63.1605 45.6605 64 44.625 64H41.5V67.125C41.5 68.1605 40.6605 69 39.625 69H30.875C29.8395 69 29 68.1605 29 67.125V61.0266C29 60.5294 29.1976 60.0524 29.5491 59.7008L42.1899 47.06C41.7428 45.7042 41.5 44.2555 41.5 42.75C41.5 35.1561 47.656 29.0001 55.2499 29C62.8662 28.9999 69 35.1337 69 42.7501ZM55.25 39C55.25 41.0711 56.9289 42.75 59 42.75C61.0711 42.75 62.75 41.0711 62.75 39C62.75 36.9289 61.0711 35.25 59 35.25C56.9289 35.25 55.25 36.9289 55.25 39Z" fill="#1D1D1F"/>
</svg>
